<svg width="206" height="246" viewBox="0 0 206 246" fill="none" xmlns="http://www.w3.org/2000/svg">
<rect x="1" width="204" height="243" rx="30" fill="#131313"/>
<line x1="39.5" y1="105" x2="39.5" y2="175" stroke="url(#paint0_linear_1_8666)" stroke-opacity="0.2"/>
<line x1="71.5" y1="105" x2="71.5" y2="175" stroke="url(#paint1_linear_1_8666)" stroke-opacity="0.2"/>
<line x1="103.5" y1="105" x2="103.5" y2="175" stroke="url(#paint2_linear_1_8666)" stroke-opacity="0.2"/>
<line x1="135.5" y1="105" x2="135.5" y2="175" stroke="url(#paint3_linear_1_8666)" stroke-opacity="0.2"/>
<line x1="167.5" y1="105" x2="167.5" y2="175" stroke="url(#paint4_linear_1_8666)" stroke-opacity="0.2"/>
<path d="M35.5 165C19 162.395 6.16667 176.666 1 184V246H204.5V125C169 161 139.67 146.641 125.5 140.5C110.5 134 89 140.5 78 154C67.7511 166.578 54.5 168 35.5 165Z" fill="url(#paint5_radial_1_8666)" fill-opacity="0.3"/>
<path d="M1 183C6.16667 175.666 19 161.395 35.5 164C54.5 167 67.7511 165.578 78 153C89 139.5 110.5 133 125.5 139.5C139.67 145.641 169 160 204.5 124" stroke="url(#paint6_linear_1_8666)" stroke-width="2"/>
<path d="M66.0699 202C65.9762 201.713 65.8526 201.456 65.6992 201.229C65.5486 200.999 65.3682 200.803 65.158 200.641C64.9506 200.479 64.7148 200.355 64.4506 200.27C64.1864 200.185 63.8966 200.142 63.5813 200.142C63.0642 200.142 62.5941 200.276 62.1708 200.543C61.7475 200.81 61.4108 201.203 61.1608 201.723C60.9108 202.243 60.7858 202.881 60.7858 203.636C60.7858 204.392 60.9122 205.03 61.1651 205.55C61.4179 206.07 61.7603 206.463 62.1921 206.73C62.6239 206.997 63.1097 207.131 63.6495 207.131C64.1495 207.131 64.5898 207.024 64.9705 206.811C65.354 206.595 65.6523 206.291 65.8654 205.899C66.0813 205.504 66.1892 205.04 66.1892 204.506L66.5131 204.574H63.8881V203.636H67.212V204.574C67.212 205.293 67.0586 205.918 66.7517 206.449C66.4478 206.98 66.0273 207.392 65.4904 207.685C64.9563 207.974 64.3426 208.119 63.6495 208.119C62.8767 208.119 62.1978 207.938 61.6125 207.574C61.0301 207.21 60.5756 206.693 60.2489 206.023C59.925 205.352 59.7631 204.557 59.7631 203.636C59.7631 202.946 59.8554 202.325 60.0401 201.774C60.2276 201.22 60.4918 200.749 60.8327 200.359C61.1736 199.97 61.577 199.672 62.0429 199.464C62.5088 199.257 63.0216 199.153 63.5813 199.153C64.0415 199.153 64.4705 199.223 64.8682 199.362C65.2688 199.499 65.6253 199.693 65.9378 199.946C66.2532 200.196 66.5159 200.496 66.7262 200.845C66.9364 201.192 67.0813 201.577 67.1608 202H66.0699ZM71.4752 208H68.782V199.273H71.5945C72.4411 199.273 73.1655 199.447 73.7678 199.797C74.37 200.143 74.8317 200.642 75.1527 201.293C75.4737 201.94 75.6342 202.716 75.6342 203.619C75.6342 204.528 75.4723 205.311 75.1485 205.967C74.8246 206.621 74.353 207.124 73.7337 207.476C73.1144 207.825 72.3615 208 71.4752 208ZM69.8388 207.062H71.407C72.1286 207.062 72.7266 206.923 73.201 206.645C73.6754 206.366 74.0291 205.97 74.2621 205.456C74.495 204.942 74.6115 204.33 74.6115 203.619C74.6115 202.915 74.4965 202.308 74.2664 201.8C74.0362 201.288 73.6925 200.896 73.2351 200.624C72.7777 200.348 72.2081 200.21 71.5263 200.21H69.8388V207.062ZM77.167 208V199.273H80.1158C80.8005 199.273 81.3602 199.396 81.7948 199.643C82.2323 199.888 82.5562 200.219 82.7664 200.636C82.9766 201.054 83.0817 201.52 83.0817 202.034C83.0817 202.548 82.9766 203.016 82.7664 203.436C82.559 203.857 82.238 204.192 81.8033 204.442C81.3687 204.689 80.8119 204.812 80.1329 204.812H78.0192V203.875H80.0988C80.5675 203.875 80.944 203.794 81.2281 203.632C81.5121 203.47 81.7181 203.251 81.846 202.976C81.9766 202.697 82.042 202.384 82.042 202.034C82.042 201.685 81.9766 201.372 81.846 201.097C81.7181 200.821 81.5107 200.605 81.2238 200.449C80.9369 200.29 80.5562 200.21 80.0817 200.21H78.2238V208H77.167ZM90.1848 210.591C89.699 210.591 89.2814 210.528 88.932 210.403C88.5826 210.281 88.2914 210.119 88.0584 209.918C87.8283 209.719 87.6451 209.506 87.5087 209.278L88.3098 208.716C88.4008 208.835 88.5158 208.972 88.655 209.125C88.7942 209.281 88.9846 209.416 89.226 209.53C89.4704 209.646 89.79 209.705 90.1848 209.705C90.7133 209.705 91.1493 209.577 91.4931 209.321C91.8368 209.065 92.0087 208.665 92.0087 208.119V206.79H91.9235C91.8496 206.909 91.7445 207.057 91.6081 207.233C91.4746 207.406 91.2814 207.561 91.0286 207.697C90.7786 207.831 90.4405 207.898 90.0144 207.898C89.486 207.898 89.0115 207.773 88.5911 207.523C88.1735 207.273 87.8425 206.909 87.5982 206.432C87.3567 205.955 87.236 205.375 87.236 204.693C87.236 204.023 87.3539 203.439 87.5897 202.942C87.8255 202.442 88.1536 202.055 88.574 201.783C88.9945 201.507 89.4803 201.369 90.0314 201.369C90.4576 201.369 90.7956 201.44 91.0456 201.582C91.2985 201.722 91.4917 201.881 91.6252 202.06C91.7615 202.236 91.8667 202.381 91.9405 202.494H92.0428V201.455H93.0144V208.188C93.0144 208.75 92.8865 209.207 92.6309 209.56C92.378 209.915 92.0371 210.175 91.6081 210.339C91.182 210.507 90.7076 210.591 90.1848 210.591ZM90.1508 206.994C90.5542 206.994 90.8951 206.902 91.1735 206.717C91.4519 206.533 91.6635 206.267 91.8084 205.92C91.9533 205.574 92.0258 205.159 92.0258 204.676C92.0258 204.205 91.9547 203.788 91.8127 203.428C91.6706 203.067 91.4604 202.784 91.182 202.58C90.9036 202.375 90.5598 202.273 90.1508 202.273C89.7246 202.273 89.3695 202.381 89.0854 202.597C88.8042 202.812 88.5925 203.102 88.4505 203.466C88.3113 203.83 88.2417 204.233 88.2417 204.676C88.2417 205.131 88.3127 205.533 88.4547 205.882C88.5996 206.229 88.8127 206.501 89.0939 206.7C89.378 206.896 89.7303 206.994 90.1508 206.994ZM94.6153 208V201.455H95.5869V202.443H95.6551C95.7744 202.119 95.9903 201.857 96.3028 201.655C96.6153 201.453 96.9676 201.352 97.3596 201.352C97.4335 201.352 97.5258 201.354 97.6366 201.357C97.7474 201.359 97.8312 201.364 97.888 201.369V202.392C97.8539 202.384 97.7758 202.371 97.6537 202.354C97.5343 202.334 97.4079 202.324 97.2744 202.324C96.9562 202.324 96.6721 202.391 96.4221 202.524C96.175 202.655 95.9789 202.837 95.834 203.07C95.692 203.3 95.621 203.562 95.621 203.858V208H94.6153ZM101.3 208.136C100.709 208.136 100.191 207.996 99.7446 207.714C99.3014 207.433 98.9548 207.04 98.7048 206.534C98.4577 206.028 98.3341 205.437 98.3341 204.761C98.3341 204.08 98.4577 203.484 98.7048 202.976C98.9548 202.467 99.3014 202.072 99.7446 201.791C100.191 201.51 100.709 201.369 101.3 201.369C101.891 201.369 102.408 201.51 102.851 201.791C103.297 202.072 103.644 202.467 103.891 202.976C104.141 203.484 104.266 204.08 104.266 204.761C104.266 205.437 104.141 206.028 103.891 206.534C103.644 207.04 103.297 207.433 102.851 207.714C102.408 207.996 101.891 208.136 101.3 208.136ZM101.3 207.233C101.749 207.233 102.118 207.118 102.408 206.888C102.698 206.658 102.912 206.355 103.051 205.98C103.191 205.605 103.26 205.199 103.26 204.761C103.26 204.324 103.191 203.916 103.051 203.538C102.912 203.161 102.698 202.855 102.408 202.622C102.118 202.389 101.749 202.273 101.3 202.273C100.851 202.273 100.482 202.389 100.192 202.622C99.9023 202.855 99.6878 203.161 99.5486 203.538C99.4094 203.916 99.3398 204.324 99.3398 204.761C99.3398 205.199 99.4094 205.605 99.5486 205.98C99.6878 206.355 99.9023 206.658 100.192 206.888C100.482 207.118 100.851 207.233 101.3 207.233ZM106.821 208L104.827 201.455H105.884L107.299 206.466H107.367L108.765 201.455H109.838L111.219 206.449H111.287L112.702 201.455H113.759L111.765 208H110.776L109.344 202.972H109.242L107.81 208H106.821ZM117.695 201.455V202.307H114.303V201.455H117.695ZM115.292 199.886H116.297V206.125C116.297 206.409 116.338 206.622 116.421 206.764C116.506 206.903 116.614 206.997 116.745 207.045C116.878 207.091 117.019 207.114 117.167 207.114C117.277 207.114 117.368 207.108 117.439 207.097C117.51 207.082 117.567 207.071 117.61 207.062L117.814 207.966C117.746 207.991 117.651 208.017 117.529 208.043C117.407 208.071 117.252 208.085 117.064 208.085C116.78 208.085 116.502 208.024 116.229 207.902C115.959 207.78 115.735 207.594 115.556 207.344C115.38 207.094 115.292 206.778 115.292 206.398V199.886ZM120.114 204.062V208H119.108V199.273H120.114V202.477H120.199C120.353 202.139 120.583 201.871 120.89 201.672C121.199 201.47 121.611 201.369 122.125 201.369C122.571 201.369 122.962 201.459 123.297 201.638C123.633 201.814 123.893 202.085 124.077 202.452C124.265 202.815 124.358 203.278 124.358 203.841V208H123.353V203.909C123.353 203.389 123.218 202.987 122.948 202.703C122.681 202.416 122.31 202.273 121.836 202.273C121.506 202.273 121.211 202.342 120.949 202.482C120.691 202.621 120.486 202.824 120.336 203.091C120.188 203.358 120.114 203.682 120.114 204.062ZM129.093 208V201.455H130.065V202.443H130.133C130.252 202.119 130.468 201.857 130.781 201.655C131.093 201.453 131.446 201.352 131.838 201.352C131.911 201.352 132.004 201.354 132.115 201.357C132.225 201.359 132.309 201.364 132.366 201.369V202.392C132.332 202.384 132.254 202.371 132.132 202.354C132.012 202.334 131.886 202.324 131.752 202.324C131.434 202.324 131.15 202.391 130.9 202.524C130.653 202.655 130.457 202.837 130.312 203.07C130.17 203.3 130.099 203.562 130.099 203.858V208H129.093ZM135.244 208.153C134.829 208.153 134.453 208.075 134.115 207.919C133.777 207.76 133.508 207.531 133.31 207.233C133.111 206.932 133.011 206.568 133.011 206.142C133.011 205.767 133.085 205.463 133.233 205.23C133.381 204.994 133.578 204.81 133.825 204.676C134.072 204.543 134.345 204.443 134.643 204.378C134.945 204.31 135.247 204.256 135.551 204.216C135.949 204.165 136.271 204.126 136.518 204.101C136.768 204.072 136.95 204.026 137.064 203.96C137.18 203.895 137.239 203.781 137.239 203.619V203.585C137.239 203.165 137.124 202.838 136.893 202.605C136.666 202.372 136.321 202.256 135.858 202.256C135.378 202.256 135.001 202.361 134.729 202.571C134.456 202.781 134.264 203.006 134.153 203.244L133.199 202.903C133.369 202.506 133.597 202.196 133.881 201.974C134.168 201.75 134.48 201.594 134.818 201.506C135.159 201.415 135.494 201.369 135.824 201.369C136.034 201.369 136.276 201.395 136.548 201.446C136.824 201.494 137.089 201.595 137.345 201.749C137.604 201.902 137.818 202.134 137.989 202.443C138.159 202.753 138.244 203.168 138.244 203.688V208H137.239V207.114H137.187C137.119 207.256 137.006 207.408 136.847 207.57C136.687 207.732 136.476 207.869 136.212 207.983C135.947 208.097 135.625 208.153 135.244 208.153ZM135.398 207.25C135.795 207.25 136.131 207.172 136.403 207.016C136.679 206.859 136.886 206.658 137.026 206.411C137.168 206.163 137.239 205.903 137.239 205.631V204.71C137.196 204.761 137.102 204.808 136.957 204.851C136.815 204.891 136.651 204.926 136.463 204.957C136.278 204.986 136.098 205.011 135.922 205.034C135.749 205.054 135.608 205.071 135.5 205.085C135.239 205.119 134.994 205.175 134.767 205.251C134.543 205.325 134.361 205.437 134.222 205.588C134.085 205.736 134.017 205.937 134.017 206.193C134.017 206.543 134.146 206.807 134.405 206.986C134.666 207.162 134.997 207.25 135.398 207.25ZM142.686 201.455V202.307H139.294V201.455H142.686ZM140.283 199.886H141.289V206.125C141.289 206.409 141.33 206.622 141.412 206.764C141.497 206.903 141.605 206.997 141.736 207.045C141.87 207.091 142.01 207.114 142.158 207.114C142.269 207.114 142.36 207.108 142.431 207.097C142.502 207.082 142.559 207.071 142.601 207.062L142.806 207.966C142.738 207.991 142.642 208.017 142.52 208.043C142.398 208.071 142.243 208.085 142.056 208.085C141.772 208.085 141.493 208.024 141.221 207.902C140.951 207.78 140.726 207.594 140.547 207.344C140.371 207.094 140.283 206.778 140.283 206.398V199.886ZM146.633 208.136C146.003 208.136 145.458 207.997 145.001 207.719C144.547 207.438 144.196 207.045 143.949 206.543C143.704 206.037 143.582 205.449 143.582 204.778C143.582 204.108 143.704 203.517 143.949 203.006C144.196 202.491 144.539 202.091 144.98 201.804C145.423 201.514 145.94 201.369 146.531 201.369C146.872 201.369 147.208 201.426 147.541 201.54C147.873 201.653 148.176 201.838 148.449 202.094C148.721 202.347 148.939 202.682 149.101 203.099C149.262 203.517 149.343 204.031 149.343 204.642V205.068H144.298V204.199H148.321C148.321 203.83 148.247 203.5 148.099 203.21C147.954 202.92 147.747 202.692 147.477 202.524C147.21 202.357 146.895 202.273 146.531 202.273C146.13 202.273 145.784 202.372 145.491 202.571C145.201 202.767 144.978 203.023 144.822 203.338C144.666 203.653 144.588 203.991 144.588 204.352V204.932C144.588 205.426 144.673 205.845 144.843 206.189C145.017 206.53 145.257 206.79 145.564 206.969C145.87 207.145 146.227 207.233 146.633 207.233C146.897 207.233 147.136 207.196 147.349 207.122C147.565 207.045 147.751 206.932 147.907 206.781C148.064 206.628 148.184 206.437 148.27 206.21L149.241 206.483C149.139 206.812 148.967 207.102 148.726 207.352C148.484 207.599 148.186 207.793 147.831 207.932C147.476 208.068 147.076 208.136 146.633 208.136Z" fill="white"/>
<path d="M88.9919 98V97.233L91.8726 94.0795C92.2107 93.7102 92.4891 93.3892 92.7078 93.1165C92.9266 92.8409 93.0885 92.5824 93.1936 92.3409C93.3016 92.0966 93.3556 91.8409 93.3556 91.5739C93.3556 91.267 93.2817 91.0014 93.134 90.777C92.9891 90.5526 92.7902 90.3793 92.5374 90.2571C92.2845 90.1349 92.0004 90.0739 91.6851 90.0739C91.3499 90.0739 91.0573 90.1435 90.8073 90.2827C90.5601 90.419 90.3683 90.6108 90.232 90.858C90.0985 91.1051 90.0317 91.3949 90.0317 91.7273H89.026C89.026 91.2159 89.1439 90.767 89.3797 90.3807C89.6155 89.9943 89.9365 89.6932 90.3428 89.4773C90.7519 89.2614 91.2107 89.1534 91.7192 89.1534C92.2306 89.1534 92.6837 89.2614 93.0786 89.4773C93.4735 89.6932 93.7831 89.9844 94.0075 90.3509C94.232 90.7173 94.3442 91.125 94.3442 91.5739C94.3442 91.8949 94.286 92.2088 94.1695 92.5156C94.0558 92.8196 93.857 93.1591 93.5729 93.5341C93.2916 93.9062 92.901 94.3608 92.401 94.8977L90.4408 96.9943V97.0625H94.4976V98H88.9919ZM98.8641 98.1193C98.2221 98.1193 97.6752 97.9446 97.2235 97.5952C96.7718 97.2429 96.4266 96.733 96.188 96.0653C95.9494 95.3949 95.83 94.5852 95.83 93.6364C95.83 92.6932 95.9494 91.8878 96.188 91.2202C96.4295 90.5497 96.7761 90.0384 97.2278 89.6861C97.6823 89.331 98.2278 89.1534 98.8641 89.1534C99.5005 89.1534 100.045 89.331 100.496 89.6861C100.951 90.0384 101.297 90.5497 101.536 91.2202C101.777 91.8878 101.898 92.6932 101.898 93.6364C101.898 94.5852 101.779 95.3949 101.54 96.0653C101.302 96.733 100.956 97.2429 100.505 97.5952C100.053 97.9446 99.5062 98.1193 98.8641 98.1193ZM98.8641 97.1818C99.5005 97.1818 99.9948 96.875 100.347 96.2614C100.699 95.6477 100.876 94.7727 100.876 93.6364C100.876 92.8807 100.795 92.2372 100.633 91.706C100.474 91.1747 100.243 90.7699 99.9423 90.4915C99.644 90.2131 99.2846 90.0739 98.8641 90.0739C98.2335 90.0739 97.7406 90.3849 97.3854 91.0071C97.0303 91.6264 96.8528 92.5028 96.8528 93.6364C96.8528 94.392 96.9323 95.0341 97.0914 95.5625C97.2505 96.0909 97.4792 96.4929 97.7775 96.7685C98.0786 97.044 98.4408 97.1818 98.8641 97.1818ZM103.278 98V97.233L106.158 94.0795C106.496 93.7102 106.775 93.3892 106.993 93.1165C107.212 92.8409 107.374 92.5824 107.479 92.3409C107.587 92.0966 107.641 91.8409 107.641 91.5739C107.641 91.267 107.567 91.0014 107.42 90.777C107.275 90.5526 107.076 90.3793 106.823 90.2571C106.57 90.1349 106.286 90.0739 105.971 90.0739C105.636 90.0739 105.343 90.1435 105.093 90.2827C104.846 90.419 104.654 90.6108 104.518 90.858C104.384 91.1051 104.317 91.3949 104.317 91.7273H103.312C103.312 91.2159 103.43 90.767 103.665 90.3807C103.901 89.9943 104.222 89.6932 104.628 89.4773C105.037 89.2614 105.496 89.1534 106.005 89.1534C106.516 89.1534 106.969 89.2614 107.364 89.4773C107.759 89.6932 108.069 89.9844 108.293 90.3509C108.518 90.7173 108.63 91.125 108.63 91.5739C108.63 91.8949 108.572 92.2088 108.455 92.5156C108.341 92.8196 108.143 93.1591 107.859 93.5341C107.577 93.9062 107.187 94.3608 106.687 94.8977L104.726 96.9943V97.0625H108.783V98H103.278ZM109.911 96.2102V95.3409L113.746 89.2727H114.377V90.6193H113.951L111.053 95.2045V95.2727H116.218V96.2102H109.911ZM114.019 98V95.946V95.5412V89.2727H115.025V98H114.019Z" fill="white"/>
<path d="M73.5526 77V68.264H55.0926V63.168L73.2926 38.26H79.3766V63.168H84.7326V68.264H79.3766V77H73.5526ZM59.6166 65.404L58.6286 63.168H73.5526V43.148L75.2166 43.668L59.6166 65.404ZM91.1538 77V70.24H97.1338V77H91.1538ZM104.189 77V72.58L114.797 61.244C116.877 59.0253 118.506 57.24 119.685 55.888C120.898 54.5013 121.765 53.288 122.285 52.248C122.84 51.208 123.117 50.116 123.117 48.972C123.117 47.1 122.545 45.6613 121.401 44.656C120.257 43.616 118.784 43.096 116.981 43.096C115.109 43.096 113.497 43.6333 112.145 44.708C110.793 45.748 109.857 47.2733 109.337 49.284L103.929 47.724C104.345 45.6787 105.177 43.9107 106.425 42.42C107.673 40.8947 109.198 39.716 111.001 38.884C112.838 38.052 114.814 37.636 116.929 37.636C119.39 37.636 121.54 38.104 123.377 39.04C125.214 39.9413 126.636 41.2067 127.641 42.836C128.681 44.4653 129.201 46.3547 129.201 48.504C129.201 49.9253 128.924 51.312 128.369 52.664C127.849 53.9813 127.034 55.3853 125.925 56.876C124.816 58.332 123.394 59.9787 121.661 61.816L112.301 71.8H129.929V77H104.189ZM134.251 77L148.963 59.12H150.859L136.147 77H134.251ZM136.915 67.976C136.083 67.976 135.323 67.768 134.635 67.352C133.947 66.936 133.395 66.384 132.979 65.696C132.563 65.008 132.355 64.24 132.355 63.392C132.355 62.56 132.563 61.8 132.979 61.112C133.395 60.408 133.947 59.856 134.635 59.456C135.323 59.04 136.083 58.832 136.915 58.832C137.747 58.832 138.507 59.04 139.195 59.456C139.883 59.856 140.427 60.408 140.827 61.112C141.243 61.8 141.451 62.56 141.451 63.392C141.451 64.24 141.243 65.008 140.827 65.696C140.427 66.384 139.883 66.936 139.195 67.352C138.507 67.768 137.747 67.976 136.915 67.976ZM136.915 66.584C137.523 66.584 138.051 66.432 138.499 66.128C138.963 65.824 139.331 65.424 139.603 64.928C139.875 64.432 140.011 63.928 140.011 63.416C140.011 62.856 139.875 62.336 139.603 61.856C139.331 61.376 138.963 60.984 138.499 60.68C138.051 60.36 137.523 60.2 136.915 60.2C136.323 60.2 135.787 60.352 135.307 60.656C134.843 60.96 134.475 61.36 134.203 61.856C133.931 62.336 133.795 62.848 133.795 63.392C133.795 63.936 133.931 64.456 134.203 64.952C134.475 65.432 134.843 65.824 135.307 66.128C135.787 66.432 136.323 66.584 136.915 66.584ZM148.147 77.288C147.315 77.288 146.555 77.08 145.867 76.664C145.179 76.248 144.627 75.696 144.211 75.008C143.795 74.32 143.587 73.552 143.587 72.704C143.587 71.872 143.795 71.112 144.211 70.424C144.627 69.72 145.179 69.168 145.867 68.768C146.555 68.352 147.315 68.144 148.147 68.144C148.979 68.144 149.739 68.352 150.427 68.768C151.115 69.168 151.659 69.712 152.059 70.4C152.475 71.088 152.683 71.856 152.683 72.704C152.683 73.552 152.475 74.32 152.059 75.008C151.659 75.696 151.115 76.248 150.427 76.664C149.739 77.08 148.979 77.288 148.147 77.288ZM148.147 75.896C148.755 75.896 149.283 75.744 149.731 75.44C150.195 75.136 150.563 74.736 150.835 74.24C151.107 73.744 151.243 73.24 151.243 72.728C151.243 72.168 151.107 71.648 150.835 71.168C150.563 70.688 150.195 70.296 149.731 69.992C149.283 69.672 148.755 69.512 148.147 69.512C147.555 69.512 147.019 69.664 146.539 69.968C146.075 70.272 145.707 70.672 145.435 71.168C145.163 71.648 145.027 72.16 145.027 72.704C145.027 73.248 145.163 73.768 145.435 74.264C145.707 74.744 146.075 75.136 146.539 75.44C147.019 75.744 147.555 75.896 148.147 75.896Z" fill="white"/>
<circle cx="102.5" cy="136.5" r="7.5" fill="#D9D9D9"/>
<circle cx="102.5" cy="136.5" r="7.5" fill="url(#paint7_linear_1_8666)"/>
<defs>
<linearGradient id="paint0_linear_1_8666" x1="38.5" y1="105" x2="38.5" y2="175" gradientUnits="userSpaceOnUse">
<stop stop-color="white" stop-opacity="0"/>
<stop offset="0.471154" stop-color="white"/>
<stop offset="1" stop-color="white" stop-opacity="0"/>
</linearGradient>
<linearGradient id="paint1_linear_1_8666" x1="70.5" y1="105" x2="70.5" y2="175" gradientUnits="userSpaceOnUse">
<stop stop-color="white" stop-opacity="0"/>
<stop offset="0.471154" stop-color="white"/>
<stop offset="1" stop-color="white" stop-opacity="0"/>
</linearGradient>
<linearGradient id="paint2_linear_1_8666" x1="102.5" y1="105" x2="102.5" y2="175" gradientUnits="userSpaceOnUse">
<stop stop-color="white" stop-opacity="0"/>
<stop offset="0.471154" stop-color="white"/>
<stop offset="1" stop-color="white" stop-opacity="0"/>
</linearGradient>
<linearGradient id="paint3_linear_1_8666" x1="134.5" y1="105" x2="134.5" y2="175" gradientUnits="userSpaceOnUse">
<stop stop-color="white" stop-opacity="0"/>
<stop offset="0.471154" stop-color="white"/>
<stop offset="1" stop-color="white" stop-opacity="0"/>
</linearGradient>
<linearGradient id="paint4_linear_1_8666" x1="166.5" y1="105" x2="166.5" y2="175" gradientUnits="userSpaceOnUse">
<stop stop-color="white" stop-opacity="0"/>
<stop offset="0.471154" stop-color="white"/>
<stop offset="1" stop-color="white" stop-opacity="0"/>
</linearGradient>
<radialGradient id="paint5_radial_1_8666" cx="0" cy="0" r="1" gradientUnits="userSpaceOnUse" gradientTransform="translate(102.75 140) rotate(90) scale(102 171.545)">
<stop stop-color="#00BCF8"/>
<stop offset="1" stop-color="#00BCF8" stop-opacity="0"/>
</radialGradient>
<linearGradient id="paint6_linear_1_8666" x1="1" y1="153.5" x2="204.5" y2="153.5" gradientUnits="userSpaceOnUse">
<stop stop-color="#01C4FD" stop-opacity="0"/>
<stop offset="0.466346" stop-color="#016FCA"/>
<stop offset="1" stop-color="#01C4FD" stop-opacity="0"/>
</linearGradient>
<linearGradient id="paint7_linear_1_8666" x1="106.183" y1="130.272" x2="94.3505" y2="138.159" gradientUnits="userSpaceOnUse">
<stop stop-color="#00C8FF"/>
<stop offset="1" stop-color="#0064C4"/>
</linearGradient>
</defs>
</svg>
