<svg width="204" height="243" viewBox="0 0 204 243" fill="none" xmlns="http://www.w3.org/2000/svg">
<rect width="204" height="243" rx="30" fill="#131313"/>
<path opacity="0.4" d="M25.0568 110V101.273H28.108C28.7159 101.273 29.2173 101.378 29.6122 101.588C30.0071 101.795 30.3011 102.075 30.4943 102.428C30.6875 102.777 30.7841 103.165 30.7841 103.591C30.7841 103.966 30.7173 104.276 30.5838 104.52C30.4531 104.764 30.2798 104.957 30.0639 105.099C29.8509 105.241 29.6193 105.347 29.3693 105.415V105.5C29.6364 105.517 29.9048 105.611 30.1747 105.781C30.4446 105.952 30.6705 106.196 30.8523 106.514C31.0341 106.832 31.125 107.222 31.125 107.682C31.125 108.119 31.0256 108.513 30.8267 108.862C30.6278 109.212 30.3139 109.489 29.8849 109.693C29.456 109.898 28.8977 110 28.2102 110H25.0568ZM26.1136 109.062H28.2102C28.9006 109.062 29.3906 108.929 29.6804 108.662C29.973 108.392 30.1193 108.065 30.1193 107.682C30.1193 107.386 30.044 107.114 29.8935 106.864C29.7429 106.611 29.5284 106.409 29.25 106.259C28.9716 106.105 28.642 106.028 28.2614 106.028H26.1136V109.062ZM26.1136 105.108H28.0739C28.392 105.108 28.679 105.045 28.9347 104.92C29.1932 104.795 29.3977 104.619 29.5483 104.392C29.7017 104.165 29.7784 103.898 29.7784 103.591C29.7784 103.207 29.6449 102.882 29.3778 102.615C29.1108 102.345 28.6875 102.21 28.108 102.21H26.1136V105.108ZM36.6101 107.324V103.455H37.6158V110H36.6101V108.892H36.542C36.3886 109.224 36.1499 109.507 35.8261 109.74C35.5022 109.97 35.0931 110.085 34.5988 110.085C34.1897 110.085 33.8261 109.996 33.5079 109.817C33.1897 109.635 32.9397 109.362 32.7579 108.999C32.5761 108.632 32.4851 108.17 32.4851 107.614V103.455H33.4908V107.545C33.4908 108.023 33.6243 108.403 33.8914 108.688C34.1613 108.972 34.505 109.114 34.9226 109.114C35.1726 109.114 35.4269 109.05 35.6854 108.922C35.9468 108.794 36.1655 108.598 36.3417 108.334C36.5207 108.07 36.6101 107.733 36.6101 107.324ZM43.8542 104.92L42.9508 105.176C42.8939 105.026 42.8101 104.879 42.6993 104.737C42.5914 104.592 42.4437 104.473 42.2562 104.379C42.0687 104.286 41.8286 104.239 41.536 104.239C41.1354 104.239 40.8016 104.331 40.5346 104.516C40.2704 104.697 40.1383 104.929 40.1383 105.21C40.1383 105.46 40.2292 105.658 40.411 105.803C40.5928 105.947 40.8769 106.068 41.2633 106.165L42.2348 106.403C42.8201 106.545 43.2562 106.763 43.5431 107.055C43.83 107.345 43.9735 107.719 43.9735 108.176C43.9735 108.551 43.8655 108.886 43.6496 109.182C43.4365 109.477 43.1383 109.71 42.7547 109.881C42.3712 110.051 41.9252 110.136 41.4167 110.136C40.749 110.136 40.1965 109.991 39.759 109.702C39.3215 109.412 39.0445 108.989 38.928 108.432L39.8826 108.193C39.9735 108.545 40.1454 108.81 40.3982 108.986C40.6539 109.162 40.9877 109.25 41.3996 109.25C41.8684 109.25 42.2405 109.151 42.5161 108.952C42.7945 108.75 42.9337 108.509 42.9337 108.227C42.9337 108 42.8542 107.81 42.6951 107.656C42.536 107.5 42.2917 107.384 41.9621 107.307L40.8712 107.051C40.2718 106.909 39.8314 106.689 39.5502 106.391C39.2718 106.089 39.1326 105.713 39.1326 105.261C39.1326 104.892 39.2363 104.565 39.4437 104.281C39.6539 103.997 39.9394 103.774 40.3002 103.612C40.6638 103.45 41.0758 103.369 41.536 103.369C42.1837 103.369 42.6922 103.511 43.0615 103.795C43.4337 104.08 43.6979 104.455 43.8542 104.92ZM45.2473 110V103.455H46.253V110H45.2473ZM45.7587 102.364C45.5627 102.364 45.3936 102.297 45.2516 102.163C45.1124 102.03 45.0428 101.869 45.0428 101.682C45.0428 101.494 45.1124 101.334 45.2516 101.2C45.3936 101.067 45.5627 101 45.7587 101C45.9547 101 46.1223 101.067 46.2615 101.2C46.4036 101.334 46.4746 101.494 46.4746 101.682C46.4746 101.869 46.4036 102.03 46.2615 102.163C46.1223 102.297 45.9547 102.364 45.7587 102.364ZM48.8607 106.062V110H47.855V103.455H48.8266V104.477H48.9118C49.0652 104.145 49.2982 103.878 49.6107 103.676C49.9232 103.472 50.3266 103.369 50.8209 103.369C51.2641 103.369 51.6519 103.46 51.9842 103.642C52.3166 103.821 52.5752 104.094 52.7598 104.46C52.9445 104.824 53.0368 105.284 53.0368 105.841V110H52.0311V105.909C52.0311 105.395 51.8976 104.994 51.6306 104.707C51.3635 104.418 50.997 104.273 50.5311 104.273C50.2101 104.273 49.9232 104.342 49.6703 104.482C49.4203 104.621 49.2229 104.824 49.078 105.091C48.9331 105.358 48.8607 105.682 48.8607 106.062ZM57.3788 110.136C56.7482 110.136 56.2041 109.997 55.7467 109.719C55.2922 109.438 54.9413 109.045 54.6942 108.543C54.4499 108.037 54.3277 107.449 54.3277 106.778C54.3277 106.108 54.4499 105.517 54.6942 105.006C54.9413 104.491 55.2851 104.091 55.7254 103.804C56.1686 103.514 56.6857 103.369 57.2766 103.369C57.6175 103.369 57.9541 103.426 58.2865 103.54C58.6189 103.653 58.9214 103.838 59.1942 104.094C59.4669 104.347 59.6842 104.682 59.8462 105.099C60.0081 105.517 60.0891 106.031 60.0891 106.642V107.068H55.0436V106.199H59.0663C59.0663 105.83 58.9925 105.5 58.8447 105.21C58.6999 104.92 58.4925 104.692 58.2226 104.524C57.9555 104.357 57.6402 104.273 57.2766 104.273C56.876 104.273 56.5294 104.372 56.2368 104.571C55.947 104.767 55.724 105.023 55.5678 105.338C55.4115 105.653 55.3334 105.991 55.3334 106.352V106.932C55.3334 107.426 55.4186 107.845 55.5891 108.189C55.7624 108.53 56.0024 108.79 56.3092 108.969C56.6161 109.145 56.9726 109.233 57.3788 109.233C57.643 109.233 57.8817 109.196 58.0947 109.122C58.3107 109.045 58.4967 108.932 58.653 108.781C58.8092 108.628 58.93 108.437 59.0152 108.21L59.9868 108.483C59.8845 108.812 59.7126 109.102 59.4712 109.352C59.2297 109.599 58.9314 109.793 58.5763 109.932C58.2212 110.068 57.822 110.136 57.3788 110.136ZM66.0153 104.92L65.1118 105.176C65.055 105.026 64.9712 104.879 64.8604 104.737C64.7525 104.592 64.6047 104.473 64.4172 104.379C64.2297 104.286 63.9897 104.239 63.6971 104.239C63.2965 104.239 62.9627 104.331 62.6957 104.516C62.4315 104.697 62.2993 104.929 62.2993 105.21C62.2993 105.46 62.3903 105.658 62.5721 105.803C62.7539 105.947 63.038 106.068 63.4243 106.165L64.3959 106.403C64.9812 106.545 65.4172 106.763 65.7042 107.055C65.9911 107.345 66.1346 107.719 66.1346 108.176C66.1346 108.551 66.0266 108.886 65.8107 109.182C65.5976 109.477 65.2993 109.71 64.9158 109.881C64.5323 110.051 64.0863 110.136 63.5778 110.136C62.9101 110.136 62.3576 109.991 61.9201 109.702C61.4826 109.412 61.2056 108.989 61.0891 108.432L62.0437 108.193C62.1346 108.545 62.3065 108.81 62.5593 108.986C62.815 109.162 63.1488 109.25 63.5607 109.25C64.0295 109.25 64.4016 109.151 64.6772 108.952C64.9556 108.75 65.0948 108.509 65.0948 108.227C65.0948 108 65.0153 107.81 64.8562 107.656C64.6971 107.5 64.4528 107.384 64.1232 107.307L63.0323 107.051C62.4329 106.909 61.9925 106.689 61.7113 106.391C61.4329 106.089 61.2937 105.713 61.2937 105.261C61.2937 104.892 61.3974 104.565 61.6047 104.281C61.815 103.997 62.1005 103.774 62.4613 103.612C62.8249 103.45 63.2368 103.369 63.6971 103.369C64.3448 103.369 64.8533 103.511 65.2226 103.795C65.5948 104.08 65.859 104.455 66.0153 104.92ZM72.0448 104.92L71.1414 105.176C71.0846 105.026 71.0008 104.879 70.89 104.737C70.782 104.592 70.6343 104.473 70.4468 104.379C70.2593 104.286 70.0192 104.239 69.7266 104.239C69.326 104.239 68.9922 104.331 68.7252 104.516C68.461 104.697 68.3289 104.929 68.3289 105.21C68.3289 105.46 68.4198 105.658 68.6016 105.803C68.7834 105.947 69.0675 106.068 69.4539 106.165L70.4255 106.403C71.0107 106.545 71.4468 106.763 71.7337 107.055C72.0206 107.345 72.1641 107.719 72.1641 108.176C72.1641 108.551 72.0562 108.886 71.8402 109.182C71.6272 109.477 71.3289 109.71 70.9454 109.881C70.5618 110.051 70.1158 110.136 69.6073 110.136C68.9397 110.136 68.3871 109.991 67.9496 109.702C67.5121 109.412 67.2351 108.989 67.1187 108.432L68.0732 108.193C68.1641 108.545 68.336 108.81 68.5888 108.986C68.8445 109.162 69.1783 109.25 69.5902 109.25C70.059 109.25 70.4312 109.151 70.7067 108.952C70.9851 108.75 71.1243 108.509 71.1243 108.227C71.1243 108 71.0448 107.81 70.8857 107.656C70.7266 107.5 70.4823 107.384 70.1527 107.307L69.0618 107.051C68.4624 106.909 68.0221 106.689 67.7408 106.391C67.4624 106.089 67.3232 105.713 67.3232 105.261C67.3232 104.892 67.4269 104.565 67.6343 104.281C67.8445 103.997 68.13 103.774 68.4908 103.612C68.8544 103.45 69.2664 103.369 69.7266 103.369C70.3743 103.369 70.8829 103.511 71.2522 103.795C71.6243 104.08 71.8885 104.455 72.0448 104.92ZM80.698 107.324V103.455H81.7036V110H80.698V108.892H80.6298C80.4764 109.224 80.2377 109.507 79.9139 109.74C79.59 109.97 79.1809 110.085 78.6866 110.085C78.2775 110.085 77.9139 109.996 77.5957 109.817C77.2775 109.635 77.0275 109.362 76.8457 108.999C76.6639 108.632 76.573 108.17 76.573 107.614V103.455H77.5786V107.545C77.5786 108.023 77.7122 108.403 77.9792 108.688C78.2491 108.972 78.5928 109.114 79.0105 109.114C79.2605 109.114 79.5147 109.05 79.7732 108.922C80.0346 108.794 80.2534 108.598 80.4295 108.334C80.6085 108.07 80.698 107.733 80.698 107.324ZM83.3056 112.455V103.455H84.2772V104.494H84.3965C84.4704 104.381 84.5727 104.236 84.7033 104.06C84.8369 103.881 85.0272 103.722 85.2744 103.582C85.5244 103.44 85.8624 103.369 86.2886 103.369C86.8397 103.369 87.3255 103.507 87.746 103.783C88.1664 104.058 88.4945 104.449 88.7303 104.955C88.9661 105.46 89.084 106.057 89.084 106.744C89.084 107.438 88.9661 108.038 88.7303 108.547C88.4945 109.053 88.1678 109.445 87.7502 109.723C87.3326 109.999 86.8511 110.136 86.3056 110.136C85.8852 110.136 85.5485 110.067 85.2957 109.928C85.0428 109.786 84.8482 109.625 84.7119 109.446C84.5755 109.264 84.4704 109.114 84.3965 108.994H84.3113V112.455H83.3056ZM84.2942 106.727C84.2942 107.222 84.3667 107.658 84.5116 108.036C84.6565 108.411 84.8681 108.705 85.1465 108.918C85.4249 109.128 85.7658 109.233 86.1692 109.233C86.5897 109.233 86.9406 109.122 87.2218 108.901C87.5059 108.676 87.719 108.375 87.861 107.997C88.0059 107.616 88.0783 107.193 88.0783 106.727C88.0783 106.267 88.0073 105.852 87.8653 105.483C87.7261 105.111 87.5144 104.817 87.2303 104.601C86.9491 104.382 86.5954 104.273 86.1692 104.273C85.7602 104.273 85.4164 104.376 85.138 104.584C84.8596 104.788 84.6494 105.075 84.5073 105.445C84.3653 105.811 84.2942 106.239 84.2942 106.727ZM94.1281 105.79V106.727H90.3099V105.79H94.1281ZM96.6633 101.273V110H95.6576V101.273H96.6633ZM98.2653 110V103.455H99.271V110H98.2653ZM98.7767 102.364C98.5806 102.364 98.4116 102.297 98.2696 102.163C98.1304 102.03 98.0608 101.869 98.0608 101.682C98.0608 101.494 98.1304 101.334 98.2696 101.2C98.4116 101.067 98.5806 101 98.7767 101C98.9727 101 99.1403 101.067 99.2795 101.2C99.4215 101.334 99.4926 101.494 99.4926 101.682C99.4926 101.869 99.4215 102.03 99.2795 102.163C99.1403 102.297 98.9727 102.364 98.7767 102.364ZM103.788 103.455V104.307H100.259V103.455H103.788ZM101.316 110V102.551C101.316 102.176 101.404 101.864 101.58 101.614C101.756 101.364 101.985 101.176 102.266 101.051C102.548 100.926 102.845 100.864 103.157 100.864C103.404 100.864 103.606 100.884 103.762 100.923C103.918 100.963 104.035 101 104.112 101.034L103.822 101.903C103.771 101.886 103.7 101.865 103.609 101.839C103.521 101.814 103.404 101.801 103.259 101.801C102.927 101.801 102.687 101.885 102.539 102.053C102.394 102.22 102.322 102.466 102.322 102.79V110H101.316ZM107.804 103.455V104.307H104.412V103.455H107.804ZM105.4 101.886H106.406V108.125C106.406 108.409 106.447 108.622 106.53 108.764C106.615 108.903 106.723 108.997 106.853 109.045C106.987 109.091 107.128 109.114 107.275 109.114C107.386 109.114 107.477 109.108 107.548 109.097C107.619 109.082 107.676 109.071 107.719 109.062L107.923 109.966C107.855 109.991 107.76 110.017 107.638 110.043C107.515 110.071 107.361 110.085 107.173 110.085C106.889 110.085 106.611 110.024 106.338 109.902C106.068 109.78 105.844 109.594 105.665 109.344C105.488 109.094 105.4 108.778 105.4 108.398V101.886ZM109.077 110V103.455H110.048V104.477H110.133C110.27 104.128 110.49 103.857 110.794 103.663C111.098 103.467 111.463 103.369 111.889 103.369C112.321 103.369 112.68 103.467 112.967 103.663C113.257 103.857 113.483 104.128 113.645 104.477H113.713C113.881 104.139 114.132 103.871 114.467 103.672C114.802 103.47 115.204 103.369 115.673 103.369C116.258 103.369 116.737 103.553 117.109 103.919C117.481 104.283 117.667 104.849 117.667 105.619V110H116.662V105.619C116.662 105.136 116.53 104.791 116.265 104.584C116.001 104.376 115.69 104.273 115.332 104.273C114.872 104.273 114.515 104.412 114.263 104.69C114.01 104.966 113.883 105.315 113.883 105.739V110H112.861V105.517C112.861 105.145 112.74 104.845 112.498 104.618C112.257 104.388 111.946 104.273 111.565 104.273C111.304 104.273 111.06 104.342 110.832 104.482C110.608 104.621 110.426 104.814 110.287 105.061C110.15 105.305 110.082 105.588 110.082 105.909V110H109.077ZM122.011 110.136C121.38 110.136 120.836 109.997 120.378 109.719C119.924 109.438 119.573 109.045 119.326 108.543C119.082 108.037 118.959 107.449 118.959 106.778C118.959 106.108 119.082 105.517 119.326 105.006C119.573 104.491 119.917 104.091 120.357 103.804C120.8 103.514 121.317 103.369 121.908 103.369C122.249 103.369 122.586 103.426 122.918 103.54C123.251 103.653 123.553 103.838 123.826 104.094C124.099 104.347 124.316 104.682 124.478 105.099C124.64 105.517 124.721 106.031 124.721 106.642V107.068H119.675V106.199H123.698C123.698 105.83 123.624 105.5 123.476 105.21C123.332 104.92 123.124 104.692 122.854 104.524C122.587 104.357 122.272 104.273 121.908 104.273C121.508 104.273 121.161 104.372 120.869 104.571C120.579 104.767 120.356 105.023 120.199 105.338C120.043 105.653 119.965 105.991 119.965 106.352V106.932C119.965 107.426 120.05 107.845 120.221 108.189C120.394 108.53 120.634 108.79 120.941 108.969C121.248 109.145 121.604 109.233 122.011 109.233C122.275 109.233 122.513 109.196 122.726 109.122C122.942 109.045 123.128 108.932 123.285 108.781C123.441 108.628 123.562 108.437 123.647 108.21L124.619 108.483C124.516 108.812 124.344 109.102 124.103 109.352C123.861 109.599 123.563 109.793 123.208 109.932C122.853 110.068 122.454 110.136 122.011 110.136ZM127.016 106.062V110H126.011V103.455H126.982V104.477H127.067C127.221 104.145 127.454 103.878 127.766 103.676C128.079 103.472 128.482 103.369 128.977 103.369C129.42 103.369 129.807 103.46 130.14 103.642C130.472 103.821 130.731 104.094 130.915 104.46C131.1 104.824 131.192 105.284 131.192 105.841V110H130.187V105.909C130.187 105.395 130.053 104.994 129.786 104.707C129.519 104.418 129.153 104.273 128.687 104.273C128.366 104.273 128.079 104.342 127.826 104.482C127.576 104.621 127.379 104.824 127.234 105.091C127.089 105.358 127.016 105.682 127.016 106.062ZM135.637 103.455V104.307H132.245V103.455H135.637ZM133.233 101.886H134.239V108.125C134.239 108.409 134.28 108.622 134.363 108.764C134.448 108.903 134.556 108.997 134.686 109.045C134.82 109.091 134.961 109.114 135.108 109.114C135.219 109.114 135.31 109.108 135.381 109.097C135.452 109.082 135.509 109.071 135.552 109.062L135.756 109.966C135.688 109.991 135.593 110.017 135.471 110.043C135.348 110.071 135.194 110.085 135.006 110.085C134.722 110.085 134.444 110.024 134.171 109.902C133.901 109.78 133.677 109.594 133.498 109.344C133.321 109.094 133.233 108.778 133.233 108.398V101.886ZM26.8466 124.153C26.4318 124.153 26.0554 124.075 25.7173 123.919C25.3793 123.76 25.1108 123.531 24.9119 123.233C24.7131 122.932 24.6136 122.568 24.6136 122.142C24.6136 121.767 24.6875 121.463 24.8352 121.23C24.983 120.994 25.1804 120.81 25.4276 120.676C25.6747 120.543 25.9474 120.443 26.2457 120.378C26.5469 120.31 26.8494 120.256 27.1534 120.216C27.5511 120.165 27.8736 120.126 28.1207 120.101C28.3707 120.072 28.5526 120.026 28.6662 119.96C28.7827 119.895 28.8409 119.781 28.8409 119.619V119.585C28.8409 119.165 28.7259 118.838 28.4957 118.605C28.2685 118.372 27.9233 118.256 27.4602 118.256C26.9801 118.256 26.6037 118.361 26.331 118.571C26.0582 118.781 25.8665 119.006 25.7557 119.244L24.8011 118.903C24.9716 118.506 25.1989 118.196 25.483 117.974C25.7699 117.75 26.0824 117.594 26.4205 117.506C26.7614 117.415 27.0966 117.369 27.4261 117.369C27.6364 117.369 27.8778 117.395 28.1506 117.446C28.4261 117.494 28.6918 117.595 28.9474 117.749C29.206 117.902 29.4205 118.134 29.5909 118.443C29.7614 118.753 29.8466 119.168 29.8466 119.688V124H28.8409V123.114H28.7898C28.7216 123.256 28.608 123.408 28.4489 123.57C28.2898 123.732 28.0781 123.869 27.8139 123.983C27.5497 124.097 27.2273 124.153 26.8466 124.153ZM27 123.25C27.3977 123.25 27.733 123.172 28.0057 123.016C28.2813 122.859 28.4886 122.658 28.6278 122.411C28.7699 122.163 28.8409 121.903 28.8409 121.631V120.71C28.7983 120.761 28.7045 120.808 28.5597 120.851C28.4176 120.891 28.2528 120.926 28.0653 120.957C27.8807 120.986 27.7003 121.011 27.5241 121.034C27.3509 121.054 27.2102 121.071 27.1023 121.085C26.8409 121.119 26.5966 121.175 26.3693 121.251C26.1449 121.325 25.9631 121.437 25.8239 121.588C25.6875 121.736 25.6193 121.937 25.6193 122.193C25.6193 122.543 25.7486 122.807 26.0071 122.986C26.2685 123.162 26.5994 123.25 27 123.25ZM32.4479 120.062V124H31.4422V117.455H32.4138V118.477H32.499C32.6524 118.145 32.8854 117.878 33.1979 117.676C33.5104 117.472 33.9138 117.369 34.4081 117.369C34.8513 117.369 35.239 117.46 35.5714 117.642C35.9038 117.821 36.1623 118.094 36.347 118.46C36.5317 118.824 36.624 119.284 36.624 119.841V124H35.6183V119.909C35.6183 119.395 35.4848 118.994 35.2177 118.707C34.9507 118.418 34.5842 118.273 34.1183 118.273C33.7973 118.273 33.5104 118.342 33.2575 118.482C33.0075 118.621 32.8101 118.824 32.6652 119.091C32.5203 119.358 32.4479 119.682 32.4479 120.062ZM40.6933 124.136C40.1478 124.136 39.6663 123.999 39.2487 123.723C38.8311 123.445 38.5044 123.053 38.2686 122.547C38.0328 122.038 37.9149 121.438 37.9149 120.744C37.9149 120.057 38.0328 119.46 38.2686 118.955C38.5044 118.449 38.8325 118.058 39.253 117.783C39.6734 117.507 40.1592 117.369 40.7103 117.369C41.1365 117.369 41.4731 117.44 41.7203 117.582C41.9703 117.722 42.1606 117.881 42.2913 118.06C42.4248 118.236 42.5285 118.381 42.6024 118.494H42.6876V115.273H43.6933V124H42.7217V122.994H42.6024C42.5285 123.114 42.4234 123.264 42.287 123.446C42.1507 123.625 41.9561 123.786 41.7032 123.928C41.4504 124.067 41.1138 124.136 40.6933 124.136ZM40.8297 123.233C41.2331 123.233 41.574 123.128 41.8524 122.918C42.1308 122.705 42.3424 122.411 42.4873 122.036C42.6322 121.658 42.7047 121.222 42.7047 120.727C42.7047 120.239 42.6336 119.811 42.4916 119.445C42.3495 119.075 42.1393 118.788 41.8609 118.584C41.5825 118.376 41.2388 118.273 40.8297 118.273C40.4035 118.273 40.0484 118.382 39.7643 118.601C39.4831 118.817 39.2714 119.111 39.1294 119.483C38.9902 119.852 38.9206 120.267 38.9206 120.727C38.9206 121.193 38.9916 121.616 39.1336 121.997C39.2785 122.375 39.4916 122.676 39.7728 122.901C40.0569 123.122 40.4092 123.233 40.8297 123.233ZM53.2062 118.92L52.3028 119.176C52.246 119.026 52.1622 118.879 52.0514 118.737C51.9434 118.592 51.7957 118.473 51.6082 118.379C51.4207 118.286 51.1806 118.239 50.888 118.239C50.4874 118.239 50.1536 118.331 49.8866 118.516C49.6224 118.697 49.4903 118.929 49.4903 119.21C49.4903 119.46 49.5812 119.658 49.763 119.803C49.9448 119.947 50.2289 120.068 50.6153 120.165L51.5869 120.403C52.1721 120.545 52.6082 120.763 52.8951 121.055C53.182 121.345 53.3255 121.719 53.3255 122.176C53.3255 122.551 53.2176 122.886 53.0016 123.182C52.7886 123.477 52.4903 123.71 52.1068 123.881C51.7232 124.051 51.2772 124.136 50.7687 124.136C50.1011 124.136 49.5485 123.991 49.111 123.702C48.6735 123.412 48.3965 122.989 48.2801 122.432L49.2346 122.193C49.3255 122.545 49.4974 122.81 49.7502 122.986C50.0059 123.162 50.3397 123.25 50.7516 123.25C51.2204 123.25 51.5926 123.151 51.8681 122.952C52.1465 122.75 52.2857 122.509 52.2857 122.227C52.2857 122 52.2062 121.81 52.0471 121.656C51.888 121.5 51.6437 121.384 51.3141 121.307L50.2232 121.051C49.6238 120.909 49.1835 120.689 48.9022 120.391C48.6238 120.089 48.4846 119.713 48.4846 119.261C48.4846 118.892 48.5883 118.565 48.7957 118.281C49.0059 117.997 49.2914 117.774 49.6522 117.612C50.0159 117.45 50.4278 117.369 50.888 117.369C51.5357 117.369 52.0443 117.511 52.4136 117.795C52.7857 118.08 53.0499 118.455 53.2062 118.92ZM58.7244 121.324V117.455H59.73V124H58.7244V122.892H58.6562C58.5028 123.224 58.2641 123.507 57.9403 123.74C57.6164 123.97 57.2073 124.085 56.713 124.085C56.3039 124.085 55.9403 123.996 55.6221 123.817C55.3039 123.635 55.0539 123.362 54.8721 122.999C54.6903 122.632 54.5994 122.17 54.5994 121.614V117.455H55.605V121.545C55.605 122.023 55.7386 122.403 56.0056 122.688C56.2755 122.972 56.6192 123.114 57.0369 123.114C57.2869 123.114 57.5411 123.05 57.7996 122.922C58.061 122.794 58.2798 122.598 58.4559 122.334C58.6349 122.07 58.7244 121.733 58.7244 121.324ZM63.9911 124.136C63.3775 124.136 62.8491 123.991 62.4059 123.702C61.9627 123.412 61.6218 123.013 61.3832 122.504C61.1445 121.996 61.0252 121.415 61.0252 120.761C61.0252 120.097 61.1474 119.51 61.3917 119.001C61.6388 118.49 61.9826 118.091 62.4229 117.804C62.8661 117.514 63.3832 117.369 63.9741 117.369C64.4343 117.369 64.8491 117.455 65.2184 117.625C65.5877 117.795 65.8903 118.034 66.1261 118.341C66.3618 118.648 66.5082 119.006 66.565 119.415H65.5593C65.4826 119.116 65.3121 118.852 65.0479 118.622C64.7866 118.389 64.4343 118.273 63.9911 118.273C63.5991 118.273 63.2553 118.375 62.9599 118.58C62.6672 118.781 62.4386 119.067 62.2738 119.436C62.1118 119.803 62.0309 120.233 62.0309 120.727C62.0309 121.233 62.1104 121.673 62.2695 122.048C62.4315 122.423 62.6587 122.714 62.9513 122.922C63.2468 123.129 63.5934 123.233 63.9911 123.233C64.2525 123.233 64.4897 123.188 64.7028 123.097C64.9158 123.006 65.0962 122.875 65.244 122.705C65.3917 122.534 65.4968 122.33 65.5593 122.091H66.565C66.5082 122.477 66.3675 122.825 66.1431 123.135C65.9215 123.442 65.6275 123.686 65.261 123.868C64.8974 124.047 64.4741 124.136 63.9911 124.136ZM70.4542 124.136C69.8406 124.136 69.3122 123.991 68.869 123.702C68.4258 123.412 68.0849 123.013 67.8463 122.504C67.6076 121.996 67.4883 121.415 67.4883 120.761C67.4883 120.097 67.6105 119.51 67.8548 119.001C68.102 118.49 68.4457 118.091 68.8861 117.804C69.3292 117.514 69.8463 117.369 70.4372 117.369C70.8974 117.369 71.3122 117.455 71.6815 117.625C72.0508 117.795 72.3534 118.034 72.5892 118.341C72.825 118.648 72.9713 119.006 73.0281 119.415H72.0224C71.9457 119.116 71.7753 118.852 71.5111 118.622C71.2497 118.389 70.8974 118.273 70.4542 118.273C70.0622 118.273 69.7184 118.375 69.423 118.58C69.1304 118.781 68.9017 119.067 68.7369 119.436C68.575 119.803 68.494 120.233 68.494 120.727C68.494 121.233 68.5736 121.673 68.7326 122.048C68.8946 122.423 69.1218 122.714 69.4145 122.922C69.7099 123.129 70.0565 123.233 70.4542 123.233C70.7156 123.233 70.9528 123.188 71.1659 123.097C71.3789 123.006 71.5593 122.875 71.7071 122.705C71.8548 122.534 71.9599 122.33 72.0224 122.091H73.0281C72.9713 122.477 72.8307 122.825 72.6062 123.135C72.3846 123.442 72.0906 123.686 71.7241 123.868C71.3605 124.047 70.9372 124.136 70.4542 124.136ZM77.0026 124.136C76.3719 124.136 75.8279 123.997 75.3705 123.719C74.9159 123.438 74.5651 123.045 74.3179 122.543C74.0736 122.037 73.9515 121.449 73.9515 120.778C73.9515 120.108 74.0736 119.517 74.3179 119.006C74.5651 118.491 74.9088 118.091 75.3492 117.804C75.7924 117.514 76.3094 117.369 76.9003 117.369C77.2412 117.369 77.5779 117.426 77.9103 117.54C78.2426 117.653 78.5452 117.838 78.8179 118.094C79.0907 118.347 79.308 118.682 79.4699 119.099C79.6318 119.517 79.7128 120.031 79.7128 120.642V121.068H74.6674V120.199H78.6901C78.6901 119.83 78.6162 119.5 78.4685 119.21C78.3236 118.92 78.1162 118.692 77.8463 118.524C77.5793 118.357 77.264 118.273 76.9003 118.273C76.4997 118.273 76.1532 118.372 75.8605 118.571C75.5708 118.767 75.3478 119.023 75.1915 119.338C75.0353 119.653 74.9571 119.991 74.9571 120.352V120.932C74.9571 121.426 75.0424 121.845 75.2128 122.189C75.3861 122.53 75.6262 122.79 75.933 122.969C76.2398 123.145 76.5963 123.233 77.0026 123.233C77.2668 123.233 77.5054 123.196 77.7185 123.122C77.9344 123.045 78.1205 122.932 78.2767 122.781C78.433 122.628 78.5537 122.437 78.639 122.21L79.6105 122.483C79.5083 122.812 79.3364 123.102 79.0949 123.352C78.8534 123.599 78.5551 123.793 78.2 123.932C77.8449 124.068 77.4458 124.136 77.0026 124.136ZM85.639 118.92L84.7356 119.176C84.6788 119.026 84.595 118.879 84.4842 118.737C84.3762 118.592 84.2285 118.473 84.041 118.379C83.8535 118.286 83.6134 118.239 83.3208 118.239C82.9203 118.239 82.5864 118.331 82.3194 118.516C82.0552 118.697 81.9231 118.929 81.9231 119.21C81.9231 119.46 82.014 119.658 82.1958 119.803C82.3776 119.947 82.6617 120.068 83.0481 120.165L84.0197 120.403C84.6049 120.545 85.041 120.763 85.3279 121.055C85.6149 121.345 85.7583 121.719 85.7583 122.176C85.7583 122.551 85.6504 122.886 85.4345 123.182C85.2214 123.477 84.9231 123.71 84.5396 123.881C84.1561 124.051 83.71 124.136 83.2015 124.136C82.5339 124.136 81.9813 123.991 81.5438 123.702C81.1063 123.412 80.8293 122.989 80.7129 122.432L81.6674 122.193C81.7583 122.545 81.9302 122.81 82.183 122.986C82.4387 123.162 82.7725 123.25 83.1845 123.25C83.6532 123.25 84.0254 123.151 84.3009 122.952C84.5793 122.75 84.7186 122.509 84.7186 122.227C84.7186 122 84.639 121.81 84.4799 121.656C84.3208 121.5 84.0765 121.384 83.747 121.307L82.6561 121.051C82.0566 120.909 81.6163 120.689 81.335 120.391C81.0566 120.089 80.9174 119.713 80.9174 119.261C80.9174 118.892 81.0211 118.565 81.2285 118.281C81.4387 117.997 81.7242 117.774 82.085 117.612C82.4487 117.45 82.8606 117.369 83.3208 117.369C83.9686 117.369 84.4771 117.511 84.8464 117.795C85.2186 118.08 85.4828 118.455 85.639 118.92ZM91.6685 118.92L90.7651 119.176C90.7083 119.026 90.6245 118.879 90.5137 118.737C90.4058 118.592 90.258 118.473 90.0705 118.379C89.883 118.286 89.643 118.239 89.3504 118.239C88.9498 118.239 88.616 118.331 88.3489 118.516C88.0847 118.697 87.9526 118.929 87.9526 119.21C87.9526 119.46 88.0435 119.658 88.2254 119.803C88.4072 119.947 88.6913 120.068 89.0776 120.165L90.0492 120.403C90.6344 120.545 91.0705 120.763 91.3575 121.055C91.6444 121.345 91.7879 121.719 91.7879 122.176C91.7879 122.551 91.6799 122.886 91.464 123.182C91.2509 123.477 90.9526 123.71 90.5691 123.881C90.1856 124.051 89.7396 124.136 89.231 124.136C88.5634 124.136 88.0109 123.991 87.5734 123.702C87.1359 123.412 86.8589 122.989 86.7424 122.432L87.6969 122.193C87.7879 122.545 87.9597 122.81 88.2126 122.986C88.4683 123.162 88.8021 123.25 89.214 123.25C89.6827 123.25 90.0549 123.151 90.3305 122.952C90.6089 122.75 90.7481 122.509 90.7481 122.227C90.7481 122 90.6685 121.81 90.5094 121.656C90.3504 121.5 90.106 121.384 89.7765 121.307L88.6856 121.051C88.0861 120.909 87.6458 120.689 87.3646 120.391C87.0861 120.089 86.9469 119.713 86.9469 119.261C86.9469 118.892 87.0506 118.565 87.258 118.281C87.4683 117.997 87.7538 117.774 88.1146 117.612C88.4782 117.45 88.8901 117.369 89.3504 117.369C89.9981 117.369 90.5066 117.511 90.8759 117.795C91.2481 118.08 91.5123 118.455 91.6685 118.92ZM96.1967 124V117.455H97.1683V118.443H97.2365C97.3558 118.119 97.5717 117.857 97.8842 117.655C98.1967 117.453 98.549 117.352 98.941 117.352C99.0149 117.352 99.1072 117.354 99.218 117.357C99.3288 117.359 99.4126 117.364 99.4694 117.369V118.392C99.4353 118.384 99.3572 118.371 99.2351 118.354C99.1157 118.334 98.9893 118.324 98.8558 118.324C98.5376 118.324 98.2535 118.391 98.0035 118.524C97.7564 118.655 97.5603 118.837 97.4155 119.07C97.2734 119.3 97.2024 119.562 97.2024 119.858V124H96.1967ZM102.348 124.153C101.933 124.153 101.556 124.075 101.218 123.919C100.88 123.76 100.612 123.531 100.413 123.233C100.214 122.932 100.115 122.568 100.115 122.142C100.115 121.767 100.189 121.463 100.336 121.23C100.484 120.994 100.681 120.81 100.929 120.676C101.176 120.543 101.449 120.443 101.747 120.378C102.048 120.31 102.351 120.256 102.655 120.216C103.052 120.165 103.375 120.126 103.622 120.101C103.872 120.072 104.054 120.026 104.167 119.96C104.284 119.895 104.342 119.781 104.342 119.619V119.585C104.342 119.165 104.227 118.838 103.997 118.605C103.77 118.372 103.424 118.256 102.961 118.256C102.481 118.256 102.105 118.361 101.832 118.571C101.559 118.781 101.368 119.006 101.257 119.244L100.302 118.903C100.473 118.506 100.7 118.196 100.984 117.974C101.271 117.75 101.583 117.594 101.922 117.506C102.262 117.415 102.598 117.369 102.927 117.369C103.137 117.369 103.379 117.395 103.652 117.446C103.927 117.494 104.193 117.595 104.449 117.749C104.707 117.902 104.922 118.134 105.092 118.443C105.262 118.753 105.348 119.168 105.348 119.688V124H104.342V123.114H104.291C104.223 123.256 104.109 123.408 103.95 123.57C103.791 123.732 103.579 123.869 103.315 123.983C103.051 124.097 102.728 124.153 102.348 124.153ZM102.501 123.25C102.899 123.25 103.234 123.172 103.507 123.016C103.782 122.859 103.99 122.658 104.129 122.411C104.271 122.163 104.342 121.903 104.342 121.631V120.71C104.299 120.761 104.206 120.808 104.061 120.851C103.919 120.891 103.754 120.926 103.566 120.957C103.382 120.986 103.201 121.011 103.025 121.034C102.852 121.054 102.711 121.071 102.603 121.085C102.342 121.119 102.098 121.175 101.87 121.251C101.646 121.325 101.464 121.437 101.325 121.588C101.189 121.736 101.12 121.937 101.12 122.193C101.12 122.543 101.25 122.807 101.508 122.986C101.77 123.162 102.101 123.25 102.501 123.25ZM109.79 117.455V118.307H106.398V117.455H109.79ZM107.386 115.886H108.392V122.125C108.392 122.409 108.433 122.622 108.516 122.764C108.601 122.903 108.709 122.997 108.84 123.045C108.973 123.091 109.114 123.114 109.261 123.114C109.372 123.114 109.463 123.108 109.534 123.097C109.605 123.082 109.662 123.071 109.705 123.062L109.909 123.966C109.841 123.991 109.746 124.017 109.624 124.043C109.502 124.071 109.347 124.085 109.159 124.085C108.875 124.085 108.597 124.024 108.324 123.902C108.054 123.78 107.83 123.594 107.651 123.344C107.475 123.094 107.386 122.778 107.386 122.398V115.886ZM113.737 124.136C113.106 124.136 112.562 123.997 112.105 123.719C111.65 123.438 111.299 123.045 111.052 122.543C110.808 122.037 110.686 121.449 110.686 120.778C110.686 120.108 110.808 119.517 111.052 119.006C111.299 118.491 111.643 118.091 112.083 117.804C112.526 117.514 113.043 117.369 113.634 117.369C113.975 117.369 114.312 117.426 114.644 117.54C114.977 117.653 115.279 117.838 115.552 118.094C115.825 118.347 116.042 118.682 116.204 119.099C116.366 119.517 116.447 120.031 116.447 120.642V121.068H111.401V120.199H115.424C115.424 119.83 115.35 119.5 115.203 119.21C115.058 118.92 114.85 118.692 114.58 118.524C114.313 118.357 113.998 118.273 113.634 118.273C113.234 118.273 112.887 118.372 112.595 118.571C112.305 118.767 112.082 119.023 111.926 119.338C111.769 119.653 111.691 119.991 111.691 120.352V120.932C111.691 121.426 111.776 121.845 111.947 122.189C112.12 122.53 112.36 122.79 112.667 122.969C112.974 123.145 113.33 123.233 113.737 123.233C114.001 123.233 114.239 123.196 114.453 123.122C114.668 123.045 114.855 122.932 115.011 122.781C115.167 122.628 115.288 122.437 115.373 122.21L116.345 122.483C116.242 122.812 116.07 123.102 115.829 123.352C115.588 123.599 115.289 123.793 114.934 123.932C114.579 124.068 114.18 124.136 113.737 124.136Z" fill="white"/>
<path d="M29.772 81L43.032 63.84L44.072 64.516C43.5867 65.036 43.0493 65.452 42.46 65.764C41.9053 66.076 41.2987 66.3013 40.64 66.44C40.016 66.5787 39.34 66.648 38.612 66.648C36.2893 66.648 34.2093 66.128 32.372 65.088C30.5347 64.0133 29.0787 62.5573 28.004 60.72C26.964 58.848 26.444 56.7333 26.444 54.376C26.444 51.9147 27.016 49.7307 28.16 47.824C29.304 45.9173 30.864 44.4093 32.84 43.3C34.816 42.1907 37.0693 41.636 39.6 41.636C42.1653 41.636 44.4187 42.1907 46.36 43.3C48.336 44.4093 49.8787 45.9347 50.988 47.876C52.132 49.7827 52.704 51.9667 52.704 54.428C52.704 55.7453 52.5653 57.0453 52.288 58.328C52.0107 59.6107 51.5253 60.9453 50.832 62.332C50.1387 63.684 49.168 65.1747 47.92 66.804L37.104 81H29.772ZM39.6 61.5C40.952 61.5 42.148 61.188 43.188 60.564C44.228 59.94 45.06 59.0907 45.684 58.016C46.308 56.9413 46.62 55.7107 46.62 54.324C46.62 52.9027 46.308 51.6547 45.684 50.58C45.06 49.4707 44.2107 48.6213 43.136 48.032C42.096 47.408 40.9173 47.096 39.6 47.096C38.2827 47.096 37.0867 47.408 36.012 48.032C34.972 48.6213 34.14 49.4707 33.516 50.58C32.892 51.6547 32.58 52.9027 32.58 54.324C32.58 55.7107 32.8747 56.9413 33.464 58.016C34.088 59.0907 34.9373 59.94 36.012 60.564C37.0867 61.188 38.2827 61.5 39.6 61.5ZM61.0025 81L74.2625 63.84L75.3025 64.516C74.8171 65.036 74.2798 65.452 73.6905 65.764C73.1358 66.076 72.5291 66.3013 71.8705 66.44C71.2465 66.5787 70.5705 66.648 69.8425 66.648C67.5198 66.648 65.4398 66.128 63.6025 65.088C61.7651 64.0133 60.3091 62.5573 59.2345 60.72C58.1945 58.848 57.6745 56.7333 57.6745 54.376C57.6745 51.9147 58.2465 49.7307 59.3905 47.824C60.5345 45.9173 62.0945 44.4093 64.0705 43.3C66.0465 42.1907 68.2998 41.636 70.8305 41.636C73.3958 41.636 75.6491 42.1907 77.5905 43.3C79.5665 44.4093 81.1091 45.9347 82.2185 47.876C83.3625 49.7827 83.9345 51.9667 83.9345 54.428C83.9345 55.7453 83.7958 57.0453 83.5185 58.328C83.2411 59.6107 82.7558 60.9453 82.0625 62.332C81.3691 63.684 80.3985 65.1747 79.1505 66.804L68.3345 81H61.0025ZM70.8305 61.5C72.1825 61.5 73.3785 61.188 74.4185 60.564C75.4585 59.94 76.2905 59.0907 76.9145 58.016C77.5385 56.9413 77.8505 55.7107 77.8505 54.324C77.8505 52.9027 77.5385 51.6547 76.9145 50.58C76.2905 49.4707 75.4411 48.6213 74.3665 48.032C73.3265 47.408 72.1478 47.096 70.8305 47.096C69.5131 47.096 68.3171 47.408 67.2425 48.032C66.2025 48.6213 65.3705 49.4707 64.7465 50.58C64.1225 51.6547 63.8105 52.9027 63.8105 54.324C63.8105 55.7107 64.1051 56.9413 64.6945 58.016C65.3185 59.0907 66.1678 59.94 67.2425 60.564C68.3171 61.188 69.5131 61.5 70.8305 61.5ZM89.6049 81L104.317 63.12H106.213L91.5009 81H89.6049ZM92.2689 71.976C91.4369 71.976 90.6769 71.768 89.9889 71.352C89.3009 70.936 88.7489 70.384 88.3329 69.696C87.9169 69.008 87.7089 68.24 87.7089 67.392C87.7089 66.56 87.9169 65.8 88.3329 65.112C88.7489 64.408 89.3009 63.856 89.9889 63.456C90.6769 63.04 91.4369 62.832 92.2689 62.832C93.1009 62.832 93.8609 63.04 94.5489 63.456C95.2369 63.856 95.7809 64.408 96.1809 65.112C96.5969 65.8 96.8049 66.56 96.8049 67.392C96.8049 68.24 96.5969 69.008 96.1809 69.696C95.7809 70.384 95.2369 70.936 94.5489 71.352C93.8609 71.768 93.1009 71.976 92.2689 71.976ZM92.2689 70.584C92.8769 70.584 93.4049 70.432 93.8529 70.128C94.3169 69.824 94.6849 69.424 94.9569 68.928C95.2289 68.432 95.3649 67.928 95.3649 67.416C95.3649 66.856 95.2289 66.336 94.9569 65.856C94.6849 65.376 94.3169 64.984 93.8529 64.68C93.4049 64.36 92.8769 64.2 92.2689 64.2C91.6769 64.2 91.1409 64.352 90.6609 64.656C90.1969 64.96 89.8289 65.36 89.5569 65.856C89.2849 66.336 89.1489 66.848 89.1489 67.392C89.1489 67.936 89.2849 68.456 89.5569 68.952C89.8289 69.432 90.1969 69.824 90.6609 70.128C91.1409 70.432 91.6769 70.584 92.2689 70.584ZM103.501 81.288C102.669 81.288 101.909 81.08 101.221 80.664C100.533 80.248 99.9809 79.696 99.5649 79.008C99.1489 78.32 98.9409 77.552 98.9409 76.704C98.9409 75.872 99.1489 75.112 99.5649 74.424C99.9809 73.72 100.533 73.168 101.221 72.768C101.909 72.352 102.669 72.144 103.501 72.144C104.333 72.144 105.093 72.352 105.781 72.768C106.469 73.168 107.013 73.712 107.413 74.4C107.829 75.088 108.037 75.856 108.037 76.704C108.037 77.552 107.829 78.32 107.413 79.008C107.013 79.696 106.469 80.248 105.781 80.664C105.093 81.08 104.333 81.288 103.501 81.288ZM103.501 79.896C104.109 79.896 104.637 79.744 105.085 79.44C105.549 79.136 105.917 78.736 106.189 78.24C106.461 77.744 106.597 77.24 106.597 76.728C106.597 76.168 106.461 75.648 106.189 75.168C105.917 74.688 105.549 74.296 105.085 73.992C104.637 73.672 104.109 73.512 103.501 73.512C102.909 73.512 102.373 73.664 101.893 73.968C101.429 74.272 101.061 74.672 100.789 75.168C100.517 75.648 100.381 76.16 100.381 76.704C100.381 77.248 100.517 77.768 100.789 78.264C101.061 78.744 101.429 79.136 101.893 79.44C102.373 79.744 102.909 79.896 103.501 79.896Z" fill="white"/>
<rect opacity="0.2" x="24" y="159" width="25" height="60" rx="12.5" fill="#717171"/>
<rect opacity="0.2" x="67" y="159" width="25" height="60" rx="12.5" fill="#717171"/>
<rect opacity="0.2" x="112" y="159" width="25" height="60" rx="12.5" fill="#717171"/>
<rect opacity="0.2" x="155" y="159" width="25" height="60" rx="12.5" fill="#717171"/>
<rect x="24" y="176" width="25" height="43" rx="12.5" fill="#D9D9D9"/>
<rect x="24" y="176" width="25" height="43" rx="12.5" fill="#01B1F2"/>
<rect x="67" y="188" width="25" height="31" rx="12.5" fill="#D9D9D9"/>
<rect x="67" y="188" width="25" height="31" rx="12.5" fill="#01B1F2"/>
<rect x="112" y="172" width="25" height="47" rx="12.5" fill="#D9D9D9"/>
<rect x="112" y="172" width="25" height="47" rx="12.5" fill="#01B1F2"/>
<rect x="155" y="182" width="25" height="37" rx="12.5" fill="#D9D9D9"/>
<rect x="155" y="182" width="25" height="37" rx="12.5" fill="#01B1F2"/>
</svg>
