<svg width="54" height="45" viewBox="0 0 54 45" fill="none" xmlns="http://www.w3.org/2000/svg">
<path d="M23.4293 33.4477C23.3738 33.7311 23.1971 33.9695 22.9529 34.0906C22.6621 34.2225 22.3529 34.3015 22.0381 34.3242C21.7933 34.3508 21.2325 34.067 21.2324 33.8607C21.224 33.4669 21.2455 33.0731 21.2967 32.6831C21.3228 32.4365 22.6264 29.439 23.0478 28.4226C23.4678 27.4444 23.9474 26.4971 24.4835 25.5871C25.5626 23.7252 26.5914 21.8642 27.6708 20.0203C27.9234 19.6178 28.2027 19.2354 28.5066 18.8762C29.514 17.6178 30.4096 16.2603 31.1816 14.8217C31.3369 14.5972 31.4444 14.3386 31.4965 14.0644C31.5487 13.5711 33.8642 9.81143 34.2499 9.37303C35.2151 8.33131 36.1104 7.23126 37.0653 6.17527C37.2004 6.02056 37.2775 5.8091 37.4934 5.76317C37.9185 5.6206 38.285 5.32437 38.5309 4.92451C38.919 4.45414 39.3408 4.01733 39.7923 3.61809C40.0644 3.43385 40.3587 3.29096 40.667 3.19347C40.9474 3.08653 41.2596 3.57435 41.2394 3.66705C41.2062 3.99526 41.5253 3.9889 41.7018 4.09758C41.7657 4.13975 41.8242 4.19092 41.8756 4.24974C41.7536 4.87469 41.5835 5.48763 41.3672 6.08224C41.1744 6.77671 40.9314 7.45382 40.6402 8.10729C40.6402 8.10729 40.4503 8.40425 40.1886 8.8257L39.2369 10.372C38.5372 11.5189 37.8201 12.733 37.6833 12.9855C37.5215 13.2438 37.3229 13.4731 37.095 13.665C36.9975 13.7628 34.9821 17.2867 34.8835 17.4153C34.4664 18.1517 33.9433 18.8121 33.3339 19.3717C33.206 19.4807 33.1012 19.6179 33.0266 19.7742C32.2745 21.0016 31.3965 22.1375 30.556 23.3016C30.1259 23.8966 29.7639 24.5444 29.3626 25.1586C29.2788 25.2646 29.1897 25.3654 29.0956 25.4608C28.9795 25.5787 28.8726 25.7067 28.7761 25.8435C27.8689 27.3365 26.8187 28.7202 26.0031 30.2692C25.8159 30.6259 24.5637 32.0805 24.3692 32.5006C24.2638 32.7289 23.4707 33.2134 23.4293 33.4477Z" fill="#FF8800"/>
<path d="M11.2441 26.1283C11.2752 26.5588 11.067 26.9663 10.706 27.1813C10.5801 27.2791 10.2097 27.249 10.1543 27.1222C10.0434 26.8814 9.9275 26.6378 9.83905 26.3901C9.79392 26.2433 9.42283 23.8877 9.23048 23.0883C9.14665 22.6954 9.07763 22.3106 9.02362 21.9213C8.9696 21.5319 8.97522 21.1496 8.97826 20.7723L8.84553 16.0814C8.83969 15.734 8.86645 15.3873 8.92543 15.0463C9.10391 13.8732 9.15728 12.6814 9.08461 11.492C9.11076 11.2889 9.07834 11.0814 8.99134 10.8948C8.80689 10.5751 8.89627 7.36785 8.98951 6.95023C9.11899 6.43692 9.22104 5.9278 9.32565 5.41367C9.43025 4.89953 9.57711 4.38935 9.6991 3.87834C9.73353 3.7367 9.70102 3.57753 9.84977 3.44733C10.0876 3.20023 10.211 2.85992 10.1896 2.51009C10.2414 2.06467 10.321 1.6236 10.428 1.18957C10.5191 0.959014 10.6403 0.742627 10.7883 0.546239C10.8908 0.345659 11.3171 0.464364 11.3634 0.534745C11.4923 0.740461 11.6888 0.578702 11.8607 0.564015C11.9218 0.557396 11.9835 0.556883 12.0449 0.562485C12.4367 1.50729 12.7651 2.47749 13.0277 3.46621L13.267 5.47321C13.3219 6.47965 13.3762 7.52433 13.3808 7.72591C13.3853 7.9538 13.3491 8.17988 13.2739 8.39296C13.2278 8.48322 13.4448 11.4992 13.4281 11.6185C13.4733 12.2513 13.3675 12.8832 13.1199 13.4594C13.07 13.5752 13.0485 13.7023 13.0572 13.8296C12.9926 14.8965 12.8723 15.9582 12.697 17.01C12.6243 17.5481 12.6238 18.0938 12.581 18.6354C12.5611 18.7341 12.5347 18.8312 12.5021 18.9261C12.4644 19.0436 12.4385 19.1648 12.4246 19.2881C12.3435 20.5731 12.1854 21.8478 12.0795 23.1319C12.0503 23.4242 11.6367 24.8154 11.6342 25.1544C11.6041 25.337 11.2368 25.9444 11.2441 26.1283Z" fill="#FF8800"/>
<path d="M31.6937 44.402C31.4255 44.7275 30.9918 44.5712 30.4638 44.1586C30.2968 44.024 30.0483 43.4833 30.1098 43.3514C30.2152 43.0984 30.3398 42.854 30.4822 42.6207C30.5764 42.5026 32.2785 41.0651 32.8789 40.607C33.4549 40.1708 34.0679 39.791 34.7099 39.4726C35.9944 38.8137 37.2896 38.154 38.5742 37.4951C38.863 37.3536 39.1646 37.2434 39.474 37.166C40.5322 36.8788 41.555 36.4578 42.5194 35.9128C42.6968 35.8508 42.8556 35.7403 42.9791 35.5932C43.1745 35.2959 45.8544 34.0569 46.2324 33.981C47.1777 33.7968 48.0797 33.506 49.0131 33.3008C49.1505 33.2892 49.2658 33.1693 49.4306 33.2656C49.7247 33.3818 50.0562 33.3539 50.3343 33.1895C50.7203 33.0506 51.1153 32.9418 51.5158 32.8642C51.7478 32.8528 51.9791 32.8817 52.2003 32.9497C52.4099 32.9927 52.5011 33.4751 52.4613 33.5225C52.3514 33.7355 52.5659 33.8661 52.6564 34.0567C52.6894 34.1141 52.7177 34.1744 52.741 34.2369C52.1331 34.9669 51.4599 35.6359 50.731 36.2344C50.731 36.2344 50.5206 36.3623 50.217 36.531C49.9133 36.6998 49.5276 36.9195 49.1208 37.141C48.312 37.5781 47.4673 38.0347 47.3032 38.1366C47.1173 38.2298 46.9169 38.2859 46.7126 38.302C46.6122 38.3105 44.2152 39.6688 44.1375 39.7029C43.636 39.987 43.0854 40.1609 42.5206 40.2135C42.4082 40.2222 42.299 40.2598 42.2029 40.3229C41.3263 40.7339 40.4308 41.0979 39.5199 41.4134C39.063 41.5951 38.6307 41.8353 38.1878 42.0763C38.1004 42.105 38.011 42.1254 37.9204 42.1374C37.8094 42.1544 37.7006 42.1857 37.5966 42.2307C36.565 42.7637 35.451 43.1549 34.4626 43.7943C34.2382 43.9564 32.947 44.2193 32.6803 44.385C32.5007 44.4001 31.8027 44.2661 31.6937 44.402Z" fill="#FF8800"/>
</svg>
