<svg width="16" height="16" viewBox="0 0 16 16" fill="none" xmlns="http://www.w3.org/2000/svg">
<path d="M12.8221 1.26312L12.3548 0L11.8875 1.26312C11.559 2.14987 10.8605 2.84844 9.97366 3.17695L8.71056 3.64428L9.97366 4.11161C10.8604 4.44007 11.559 5.13862 11.8875 6.02544L12.3548 7.28856L12.8221 6.02544C13.1506 5.13869 13.8491 4.44012 14.7359 4.11161L15.9991 3.64428L14.7359 3.17695C13.8492 2.84849 13.1506 2.14994 12.8221 1.26312Z" fill="white"/>
<path d="M6.9196 5.85974L6.13285 3.73419L5.3461 5.85974C4.79405 7.352 3.61774 8.52837 2.12553 9.08034L0 9.8671L2.12553 10.6539C3.61778 11.2059 4.79414 12.3822 5.3461 13.8744L6.13285 16L6.9196 13.8744C7.47165 12.3822 8.64796 11.2058 10.1402 10.6539L12.2657 9.8671L10.1402 9.08034C8.64792 8.52828 7.47156 7.35197 6.9196 5.85974Z" fill="white"/>
</svg>
