<svg width="103" height="106" viewBox="0 0 103 106" fill="none" xmlns="http://www.w3.org/2000/svg">
<path d="M46.0011 75.2608C40.8467 74.7942 35.8028 73.4902 31.0682 71.4001C30.2202 70.9959 29.352 70.6315 28.4999 70.2553C27.6388 69.867 26.8015 69.428 25.9924 68.9407C23.251 67.1728 20.6984 65.1281 18.3748 62.8386C16.069 60.613 13.9914 58.1625 12.1733 55.5235C10.538 53.2256 9.0574 50.8216 7.74117 48.3273C6.87759 46.741 6.16409 45.0776 5.60996 43.3586C5.11377 41.618 4.82005 39.826 4.73463 38.0181C4.68624 36.8959 5.12174 36.996 5.87991 37.7658C6.36197 38.2627 6.8116 38.79 7.22604 39.3446C7.84043 40.006 8.38008 40.7331 8.83522 41.5127C9.0915 41.8579 9.29364 42.231 9.48982 42.5959C9.686 42.9609 9.83607 43.3477 10.0462 43.7147C10.4686 44.4349 10.847 45.1627 11.2775 45.8769C11.7079 46.5911 12.1565 47.2793 12.619 47.9696C13.0816 48.66 13.5602 49.3384 14.103 49.9691C15.0924 51.302 16.138 52.5933 17.2356 53.8708C18.3332 55.1483 19.3366 56.4833 20.4484 57.7129C21.8318 59.2309 23.3846 60.5855 25.0763 61.75C26.7731 62.8943 28.5424 63.9273 30.3729 64.8425C34.4368 66.8515 38.8104 68.1608 43.3098 68.7152C44.7057 68.891 46.1097 68.9961 47.5162 69.0302C48.2222 69.0418 48.93 69.0893 49.6341 69.0648L51.7364 69.0113C56.0156 68.7608 60.228 67.8327 64.2163 66.2616C67.1988 64.958 69.9918 63.2578 72.5196 61.2071C73.1175 60.838 73.5821 60.3064 74.1642 59.8993C74.7462 59.4922 75.1635 59.2322 75.5487 58.9962C75.9172 58.8049 76.3155 58.6777 76.7266 58.62C77.4026 58.5189 78.0934 58.6161 78.7152 58.9C79.0178 59.0051 79.315 59.1254 79.6054 59.2604C80.0342 59.5026 80.1359 59.9751 80.0746 60.6308C79.9177 61.567 79.5884 62.466 79.1033 63.282C78.584 63.9414 78.015 64.5506 77.4478 65.1957L76.571 66.1454L75.6207 67.0126C74.9901 67.6052 74.3191 68.1532 73.6124 68.6526C72.9219 69.1652 72.1696 69.6114 71.4213 70.0797C70.6729 70.548 69.895 70.9261 69.1169 71.3542C68.3413 71.7557 67.5458 72.1175 66.7334 72.4383C65.9237 72.7903 65.0763 73.058 64.2448 73.3639C63.4133 73.6697 62.5384 73.8334 61.6574 74.039C56.5457 75.3208 51.2634 75.7865 46.0063 75.4188L46.0011 75.2608Z" fill="#FF8800"/>
<path d="M87.033 57.3716C87.1346 56.4928 87.047 55.6024 86.776 54.7603C86.538 54.1085 86.0598 53.5724 85.4395 53.2616C84.752 53.0051 84.0302 52.8525 83.2977 52.8089C81.7236 52.545 80.1202 52.5026 78.5343 52.6831C76.7776 52.8163 74.9924 53.0454 73.227 53.3346C71.6657 53.6253 70.1286 54.0334 68.6288 54.5556L65.7899 55.5295C64.9042 55.8304 64.0029 56.0836 63.0901 56.288C62.7279 56.3202 61.9747 55.7584 61.9945 54.6105C62.0428 53.3027 62.7278 52.1013 63.8285 51.3936C64.8125 50.871 65.8244 50.4027 66.8596 49.9907C67.8908 49.6239 68.9324 49.2991 69.9845 49.0163C72.0968 48.4373 74.2589 48.0584 76.4422 47.8846C77.7588 47.7792 79.0919 47.5618 80.5009 47.3629C81.2674 47.2392 82.0404 47.1602 82.8161 47.1264C83.2099 47.1175 83.6039 47.1328 83.9959 47.1723C84.3967 47.1958 84.7946 47.2547 85.185 47.3483C87.0909 47.7 88.8495 48.6095 90.238 49.9615C91.5655 51.3606 92.4084 53.1492 92.6426 55.0636C92.8811 57.0529 92.7811 59.0683 92.3468 61.0242C91.7222 63.7465 90.8898 66.4169 89.8569 69.0119C89.1269 70.9982 88.6366 73.0558 87.8767 75.052C87.7216 75.4968 87.5288 75.9274 87.3002 76.3392C86.4047 77.8507 85.7073 78.1192 84.3316 77.6584C84.0173 77.5692 83.7087 77.4615 83.4072 77.3357C82.4358 76.8135 81.953 75.6901 82.2427 74.6259C82.361 73.7358 82.5392 72.8547 82.7759 71.9885C83.0301 71.1398 83.3362 70.3273 83.6005 69.4586C84.1769 67.7855 84.8473 66.1048 85.3594 64.4793C86.1985 62.2203 86.71 59.8528 86.8786 57.4488L87.033 57.3716Z" fill="#FF8800"/>
</svg>
